<svg width="80.000000" height="80.000000" viewBox="0 0 80 80" fill="none" xmlns="http://www.w3.org/2000/svg" xmlns:xlink="http://www.w3.org/1999/xlink">
	<desc>
			Created with Pixso.
	</desc>
	<defs>
		<filter id="filter_1_538_dd" x="0.000000" y="0.000000" width="80.000000" height="80.000000" filterUnits="userSpaceOnUse" color-interpolation-filters="sRGB">
			<feFlood flood-opacity="0" result="BackgroundImageFix"/>
			<feColorMatrix in="SourceAlpha" type="matrix" values="0 0 0 0 0 0 0 0 0 0 0 0 0 0 0 0 0 0 127 0" result="hardAlpha"/>
			<feOffset dx="0" dy="0"/>
			<feGaussianBlur stdDeviation="6.66667"/>
			<feComposite in2="hardAlpha" operator="out" k2="-1" k3="1"/>
			<feColorMatrix type="matrix" values="0 0 0 0 0 0 0 0 0 0 0 0 0 0 0 0 0 0 0.15 0"/>
			<feBlend mode="normal" in2="BackgroundImageFix" result="effect_dropShadow_1"/>
			<feBlend mode="normal" in="SourceGraphic" in2="effect_dropShadow_1" result="shape"/>
		</filter>
		<clipPath id="clip1_539">
			<rect id="next (3) 1" width="18.000002" height="17.999998" transform="translate(33.000000 31.000000) rotate(0.000031)" fill="white" fill-opacity="0"/>
		</clipPath>
	</defs>
	<g filter="url(#filter_1_538_dd)">
		<circle id="Ellipse 8" r="20.000000" transform="matrix(-1 -8.74228e-08 8.74228e-08 -1 40 40)" fill="#FFFFFF" fill-opacity="1.000000"/>
	</g>
	<rect id="next (3) 1" width="18.000002" height="17.999998" transform="translate(33.000000 31.000000) rotate(0.000031)" fill="#FFFFFF" fill-opacity="0"/>
	<g clip-path="url(#clip1_539)">
		<path id="Chevron Right 1" d="M46.69 39.35L38.59 31.26C38.24 30.91 37.66 30.91 37.31 31.26C36.95 31.62 36.95 32.19 37.31 32.54L44.76 39.99L37.31 47.44C36.95 47.8 36.95 48.37 37.31 48.73C37.66 49.08 38.24 49.08 38.59 48.73L46.69 40.64C47.04 40.29 47.04 39.7 46.69 39.35Z" fill="#0F2438" fill-opacity="1.000000" fill-rule="nonzero"/>
	</g>
</svg>
