<svg width="28.000000" height="28.000000" viewBox="0 0 28 28" fill="none" xmlns="http://www.w3.org/2000/svg" xmlns:xlink="http://www.w3.org/1999/xlink">
	<desc>
			Created with Pixso.
	</desc>
	<defs>
		<clipPath id="clip1_492">
			<rect id="cart 1" width="28.000000" height="28.000000" fill="white" fill-opacity="0"/>
		</clipPath>
	</defs>
	<rect id="cart 1" width="28.000000" height="28.000000" fill="#FFFFFF" fill-opacity="0"/>
	<g clip-path="url(#clip1_492)">
		<path id="Vector" d="M10.64 20.92C8.69 20.92 7.1 22.51 7.1 24.46C7.1 26.41 8.69 28 10.64 28C12.59 28 14.17 26.41 14.17 24.46C14.17 22.51 12.59 20.92 10.64 20.92ZM10.64 25.87C9.86 25.87 9.22 25.24 9.22 24.46C9.22 23.68 9.86 23.05 10.64 23.05C11.42 23.05 12.05 23.68 12.05 24.46C12.05 25.24 11.42 25.87 10.64 25.87Z" fill="#0F2438" fill-opacity="1.000000" fill-rule="nonzero"/>
		<path id="Vector" d="M7.1 24.46C7.1 26.41 8.69 28 10.64 28C12.59 28 14.17 26.41 14.17 24.46C14.17 22.51 12.59 20.92 10.64 20.92C8.69 20.92 7.1 22.51 7.1 24.46ZM9.22 24.46C9.22 23.68 9.86 23.05 10.64 23.05C11.42 23.05 12.05 23.68 12.05 24.46C12.05 25.24 11.42 25.87 10.64 25.87C9.86 25.87 9.22 25.24 9.22 24.46Z" stroke="#FFFFFF" stroke-opacity="1.000000" stroke-width="0.300000"/>
		<path id="Vector" d="M21.1 20.92C19.15 20.92 17.57 22.51 17.57 24.46C17.57 26.41 19.15 28 21.1 28C23.05 28 24.64 26.41 24.64 24.46C24.64 22.51 23.05 20.92 21.1 20.92ZM21.1 25.87C20.32 25.87 19.69 25.24 19.69 24.46C19.69 23.68 20.32 23.05 21.1 23.05C21.88 23.05 22.52 23.68 22.52 24.46C22.52 25.24 21.88 25.87 21.1 25.87Z" fill="#0F2438" fill-opacity="1.000000" fill-rule="nonzero"/>
		<path id="Vector" d="M17.57 24.46C17.57 26.41 19.15 28 21.1 28C23.05 28 24.64 26.41 24.64 24.46C24.64 22.51 23.05 20.92 21.1 20.92C19.15 20.92 17.57 22.51 17.57 24.46ZM19.69 24.46C19.69 23.68 20.32 23.05 21.1 23.05C21.88 23.05 22.52 23.68 22.52 24.46C22.52 25.24 21.88 25.87 21.1 25.87C20.32 25.87 19.69 25.24 19.69 24.46Z" stroke="#FFFFFF" stroke-opacity="1.000000" stroke-width="0.300000"/>
		<path id="Vector" d="M27.23 6.9C27.03 6.65 26.73 6.5 26.4 6.5L7.83 6.5L6.87 1.63C6.78 1.2 6.45 0.87 6.02 0.79L1.78 0.01C1.2 -0.09 0.65 0.29 0.54 0.86C0.44 1.44 0.82 1.99 1.4 2.1L4.93 2.75L8.04 18.48C8.14 18.98 8.57 19.33 9.08 19.33L23.93 19.33C24.42 19.33 24.85 18.99 24.96 18.51L27.44 7.8C27.51 7.48 27.44 7.15 27.23 6.9ZM23.09 17.21L9.95 17.21L8.25 8.62L25.07 8.62L23.09 17.21Z" fill="#0F2438" fill-opacity="1.000000" fill-rule="nonzero"/>
		<path id="Vector" d="M26.4 6.5L7.83 6.5L6.87 1.63C6.78 1.2 6.45 0.87 6.02 0.79L1.78 0.01C1.2 -0.09 0.65 0.29 0.54 0.86C0.44 1.44 0.82 1.99 1.4 2.1L4.93 2.75L8.04 18.48C8.14 18.98 8.57 19.33 9.08 19.33L23.93 19.33C24.42 19.33 24.85 18.99 24.96 18.51L27.44 7.8C27.51 7.48 27.44 7.15 27.23 6.9C27.03 6.65 26.73 6.5 26.4 6.5ZM9.95 17.21L8.25 8.62L25.07 8.62L23.09 17.21L9.95 17.21Z" stroke="#FFFFFF" stroke-opacity="1.000000" stroke-width="0.300000"/>
	</g>
</svg>
