<svg width="17.000000" height="17.000000" viewBox="0 0 17 17" fill="none" xmlns="http://www.w3.org/2000/svg" xmlns:xlink="http://www.w3.org/1999/xlink">
	<desc>
			Created with Pixso.
	</desc>
	<defs>
		<clipPath id="clip1_521">
			<rect id="cart 1" width="17.000000" height="17.000000" fill="white" fill-opacity="0"/>
		</clipPath>
	</defs>
	<rect id="cart 1" width="17.000000" height="17.000000" fill="#FFFFFF" fill-opacity="0"/>
	<g clip-path="url(#clip1_521)">
		<path id="Vector" d="M6.46 12.7C5.27 12.7 4.31 13.67 4.31 14.85C4.31 16.03 5.27 17 6.46 17C7.64 17 8.6 16.03 8.6 14.85C8.6 13.67 7.64 12.7 6.46 12.7ZM6.46 15.71C5.98 15.71 5.6 15.32 5.6 14.85C5.6 14.38 5.98 13.99 6.46 13.99C6.93 13.99 7.31 14.38 7.31 14.85C7.31 15.32 6.93 15.71 6.46 15.71Z" fill="#FFFFFF" fill-opacity="1.000000" fill-rule="nonzero"/>
		<path id="Vector" d="M12.81 12.7C11.63 12.7 10.66 13.67 10.66 14.85C10.66 16.03 11.63 17 12.81 17C13.99 17 14.96 16.03 14.96 14.85C14.96 13.67 13.99 12.7 12.81 12.7ZM12.81 15.71C12.34 15.71 11.95 15.32 11.95 14.85C11.95 14.38 12.34 13.99 12.81 13.99C13.28 13.99 13.67 14.38 13.67 14.85C13.67 15.32 13.28 15.71 12.81 15.71Z" fill="#FFFFFF" fill-opacity="1.000000" fill-rule="nonzero"/>
		<path id="Vector" d="M16.53 4.19C16.41 4.03 16.23 3.94 16.03 3.94L4.75 3.94L4.17 0.99C4.12 0.73 3.91 0.53 3.65 0.48L1.08 0.01C0.73 -0.06 0.39 0.17 0.33 0.52C0.26 0.87 0.5 1.21 0.84 1.27L2.99 1.67L4.88 11.22C4.94 11.52 5.2 11.74 5.51 11.74L14.53 11.74C14.83 11.74 15.09 11.53 15.15 11.24L16.66 4.73C16.7 4.54 16.66 4.34 16.53 4.19ZM14.01 10.45L6.04 10.45L5.01 5.23L15.22 5.23L14.01 10.45Z" fill="#FFFFFF" fill-opacity="1.000000" fill-rule="nonzero"/>
	</g>
</svg>
