<svg width="32.000000" height="32.000000" viewBox="0 0 32 32" fill="none" xmlns="http://www.w3.org/2000/svg" xmlns:xlink="http://www.w3.org/1999/xlink">
	<desc>
			Created with Pixso.
	</desc>
	<defs>
		<clipPath id="clip1_448">
			<rect id="time (1) 1" width="32.000000" height="32.000000" fill="white" fill-opacity="0"/>
		</clipPath>
	</defs>
	<rect id="time (1) 1" width="32.000000" height="32.000000" fill="#FFFFFF" fill-opacity="0"/>
	<g clip-path="url(#clip1_448)">
		<path id="Vector" d="M16 0C7.16 0 0 7.16 0 16C0 24.83 7.16 32 16 32C24.83 32 31.99 24.83 31.99 16C31.99 7.16 24.83 0 16 0ZM16 29.71C8.42 29.71 2.28 23.57 2.28 16C2.28 8.42 8.42 2.28 16 2.28C23.57 2.28 29.71 8.42 29.71 16C29.7 23.57 23.57 29.7 16 29.71Z" fill="#0F2438" fill-opacity="1.000000" fill-rule="nonzero"/>
		<path id="Vector" d="M16 5.71C15.36 5.71 14.85 6.22 14.85 6.85L14.85 14.85L6.85 14.85C6.22 14.85 5.71 15.36 5.71 16C5.71 16.63 6.22 17.14 6.85 17.14L16 17.14C16.63 17.14 17.14 16.63 17.14 16L17.14 6.85C17.14 6.22 16.63 5.71 16 5.71Z" fill="#0F2438" fill-opacity="1.000000" fill-rule="nonzero"/>
	</g>
</svg>
