<svg width="20.000000" height="20.000000" viewBox="0 0 20 20" fill="none" xmlns="http://www.w3.org/2000/svg" xmlns:xlink="http://www.w3.org/1999/xlink">
	<desc>
			Created with Pixso.
	</desc>
	<defs>
		<clipPath id="clip1_608">
			<rect id="close (2) 1" width="20.000000" height="20.000000" fill="white" fill-opacity="0"/>
		</clipPath>
	</defs>
	<rect id="close (2) 1" width="20.000000" height="20.000000" fill="#FFFFFF" fill-opacity="0"/>
	<g clip-path="url(#clip1_608)">
		<path id="Vector" d="M1.03 20C0.77 20 0.5 19.89 0.3 19.69C-0.1 19.29 -0.1 18.64 0.3 18.24L18.24 0.3C18.65 -0.11 19.3 -0.11 19.7 0.3C20.1 0.7 20.1 1.35 19.7 1.75L1.76 19.69C1.56 19.89 1.29 20 1.03 20Z" fill="#A29DBC" fill-opacity="1.000000" fill-rule="nonzero"/>
		<path id="Vector" d="M18.97 20C18.71 20 18.45 19.89 18.25 19.69L0.3 1.75C-0.1 1.35 -0.1 0.7 0.3 0.3C0.7 -0.11 1.36 -0.11 1.76 0.3L19.7 18.24C20.1 18.64 20.1 19.29 19.7 19.69C19.5 19.89 19.23 20 18.97 20Z" fill="#A29DBC" fill-opacity="1.000000" fill-rule="nonzero"/>
	</g>
</svg>
