<svg width="21.000000" height="21.000000" viewBox="0 0 21 21" fill="none" xmlns="http://www.w3.org/2000/svg" xmlns:xlink="http://www.w3.org/1999/xlink">
	<desc>
			Created with Pixso.
	</desc>
	<defs>
		<clipPath id="clip1_149">
			<rect id="market-fluctuation 1" width="21.000000" height="21.000000" fill="white" fill-opacity="0"/>
		</clipPath>
	</defs>
	<rect id="market-fluctuation 1" width="21.000000" height="21.000000" fill="#FFFFFF" fill-opacity="0"/>
	<g clip-path="url(#clip1_149)">
		<path id="Vector" d="M20.56 18.37L0.43 18.37C0.19 18.37 0 18.17 0 17.93C0 17.69 0.19 17.5 0.43 17.5L20.56 17.5C20.8 17.5 21 17.69 21 17.93C21 18.17 20.8 18.37 20.56 18.37Z" fill="#005BB9" fill-opacity="1.000000" fill-rule="nonzero"/>
		<path id="Vector" d="M0.43 18.37C0.19 18.37 0 18.17 0 17.93C0 17.69 0.19 17.5 0.43 17.5L20.56 17.5C20.8 17.5 21 17.69 21 17.93C21 18.17 20.8 18.37 20.56 18.37L0.43 18.37Z" stroke="#005BB9" stroke-opacity="1.000000" stroke-width="0.400000"/>
		<path id="Vector" d="M5.68 18.37L1.31 18.37C1.07 18.37 0.87 18.17 0.87 17.93L0.87 7C0.87 6.51 1.26 6.12 1.75 6.12L5.25 6.12C5.73 6.12 6.12 6.51 6.12 7L6.12 17.93C6.12 18.17 5.92 18.37 5.68 18.37ZM1.75 17.5L5.25 17.5L5.25 7L1.75 7L1.75 17.5Z" fill="#005BB9" fill-opacity="1.000000" fill-rule="nonzero"/>
		<path id="Vector" d="M1.31 18.37C1.07 18.37 0.87 18.17 0.87 17.93L0.87 7C0.87 6.51 1.26 6.12 1.75 6.12L5.25 6.12C5.73 6.12 6.12 6.51 6.12 7L6.12 17.93C6.12 18.17 5.92 18.37 5.68 18.37L1.31 18.37ZM5.25 17.5L5.25 7L1.75 7L1.75 17.5L5.25 17.5Z" stroke="#005BB9" stroke-opacity="1.000000" stroke-width="0.400000"/>
		<path id="Vector" d="M12.68 18.37L8.31 18.37C8.07 18.37 7.87 18.17 7.87 17.93L7.87 3.5C7.87 3.01 8.26 2.62 8.75 2.62L12.25 2.62C12.73 2.62 13.12 3.01 13.12 3.5L13.12 17.93C13.12 18.17 12.92 18.37 12.68 18.37ZM8.75 17.5L12.25 17.5L12.25 3.5L8.75 3.5L8.75 17.5Z" fill="#005BB9" fill-opacity="1.000000" fill-rule="nonzero"/>
		<path id="Vector" d="M8.31 18.37C8.07 18.37 7.87 18.17 7.87 17.93L7.87 3.5C7.87 3.01 8.26 2.62 8.75 2.62L12.25 2.62C12.73 2.62 13.12 3.01 13.12 3.5L13.12 17.93C13.12 18.17 12.92 18.37 12.68 18.37L8.31 18.37ZM12.25 17.5L12.25 3.5L8.75 3.5L8.75 17.5L12.25 17.5Z" stroke="#005BB9" stroke-opacity="1.000000" stroke-width="0.400000"/>
		<path id="Vector" d="M19.68 18.37L15.31 18.37C15.07 18.37 14.87 18.17 14.87 17.93L14.87 9.62C14.87 9.14 15.26 8.75 15.75 8.75L19.25 8.75C19.73 8.75 20.12 9.14 20.12 9.62L20.12 17.93C20.12 18.17 19.92 18.37 19.68 18.37ZM15.75 17.5L19.25 17.5L19.25 9.62L15.75 9.62L15.75 17.5Z" fill="#005BB9" fill-opacity="1.000000" fill-rule="nonzero"/>
		<path id="Vector" d="M15.31 18.37C15.07 18.37 14.87 18.17 14.87 17.93L14.87 9.62C14.87 9.14 15.26 8.75 15.75 8.75L19.25 8.75C19.73 8.75 20.12 9.14 20.12 9.62L20.12 17.93C20.12 18.17 19.92 18.37 19.68 18.37L15.31 18.37ZM19.25 17.5L19.25 9.62L15.75 9.62L15.75 17.5L19.25 17.5Z" stroke="#005BB9" stroke-opacity="1.000000" stroke-width="0.400000"/>
	</g>
</svg>
