<svg width="28.000000" height="28.000000" viewBox="0 0 28 28" fill="none" xmlns="http://www.w3.org/2000/svg" xmlns:xlink="http://www.w3.org/1999/xlink">
	<desc>
			Created with Pixso.
	</desc>
	<defs>
		<clipPath id="clip1_506">
			<rect id="heart 1" width="28.000000" height="27.999947" fill="white" fill-opacity="0"/>
		</clipPath>
	</defs>
	<rect id="heart 1" width="28.000000" height="27.999947" fill="#FFFFFF" fill-opacity="0"/>
	<g clip-path="url(#clip1_506)">
		<path id="Vector" d="M14 26.44C13.6 26.44 13.21 26.29 12.91 26.03C11.78 25.04 10.69 24.11 9.73 23.29L9.72 23.29C6.9 20.88 4.47 18.81 2.77 16.76C0.88 14.48 0 12.31 0 9.94C0 7.64 0.78 5.52 2.22 3.96C3.67 2.39 5.65 1.53 7.82 1.53C9.43 1.53 10.91 2.04 12.22 3.04C12.87 3.55 13.47 4.18 14 4.9C14.52 4.18 15.12 3.55 15.77 3.04C17.08 2.04 18.56 1.53 20.17 1.53C22.34 1.53 24.32 2.39 25.77 3.96C27.21 5.52 27.99 7.64 27.99 9.94C27.99 12.31 27.11 14.48 25.22 16.76C23.52 18.81 21.09 20.88 18.27 23.29C17.3 24.11 16.21 25.04 15.08 26.03C14.78 26.29 14.39 26.44 14 26.44ZM7.82 3.17C6.12 3.17 4.56 3.84 3.42 5.08C2.27 6.33 1.63 8.05 1.63 9.94C1.63 11.93 2.38 13.71 4.03 15.72C5.64 17.65 8.02 19.69 10.79 22.04L10.79 22.04C11.76 22.87 12.85 23.8 13.99 24.8C15.14 23.8 16.24 22.86 17.2 22.04C19.97 19.68 22.35 17.65 23.96 15.72C25.61 13.71 26.36 11.93 26.36 9.94C26.36 8.05 25.72 6.33 24.57 5.08C23.43 3.84 21.87 3.17 20.17 3.17C18.93 3.17 17.79 3.56 16.78 4.34C15.88 5.04 15.25 5.92 14.88 6.53C14.7 6.85 14.36 7.04 14 7.04C13.63 7.04 13.29 6.85 13.11 6.53C12.74 5.92 12.11 5.04 11.21 4.34C10.2 3.56 9.06 3.17 7.82 3.17Z" fill="#0F2438" fill-opacity="1.000000" fill-rule="nonzero"/>
	</g>
</svg>
