<svg width="26.000000" height="26.000000" viewBox="0 0 26 26" fill="none" xmlns="http://www.w3.org/2000/svg" xmlns:xlink="http://www.w3.org/1999/xlink">
	<desc>
			Created with Pixso.
	</desc>
	<defs>
		<clipPath id="clip1_90">
			<rect id="google-plus 1" width="26.000000" height="26.000000" fill="white" fill-opacity="0"/>
		</clipPath>
	</defs>
	<rect id="google-plus 1" width="26.000000" height="26.000000" fill="#FFFFFF" fill-opacity="0"/>
	<g clip-path="url(#clip1_90)">
		<path id="Vector" d="M23.64 9.75L21.27 9.75L21.27 12.1L18.91 12.1L18.91 14.47L21.27 14.47L21.27 16.83L23.64 16.83L23.64 14.47L25.99 14.47L25.99 12.1L23.64 12.1L23.64 9.75Z" fill="#FFFFFF" fill-opacity="1.000000" fill-rule="nonzero"/>
		<path id="Vector" d="M8.12 21.12C12.81 21.12 15.92 17.83 15.92 13.18C15.92 12.65 15.87 12.24 15.79 11.83L8.12 11.83L8.12 14.62L12.73 14.62C12.54 15.81 11.34 18.13 8.12 18.13C5.35 18.13 3.09 15.83 3.09 13C3.09 10.16 5.35 7.86 8.12 7.86C9.71 7.86 10.76 8.54 11.36 9.11L13.56 7C12.14 5.67 10.31 4.87 8.12 4.87C3.63 4.87 0 8.51 0 13C0 17.48 3.63 21.12 8.12 21.12Z" fill="#FFFFFF" fill-opacity="1.000000" fill-rule="nonzero"/>
	</g>
</svg>
