<svg width="28.000000" height="28.000000" viewBox="0 0 28 28" fill="none" xmlns="http://www.w3.org/2000/svg" xmlns:xlink="http://www.w3.org/1999/xlink">
	<desc>
			Created with Pixso.
	</desc>
	<defs>
		<clipPath id="clip1_501">
			<rect id="user (1) 1" width="28.000000" height="28.000053" fill="white" fill-opacity="0"/>
		</clipPath>
	</defs>
	<rect id="user (1) 1" width="28.000000" height="28.000053" fill="#FFFFFF" fill-opacity="0"/>
	<g clip-path="url(#clip1_501)">
		<path id="Vector" d="M13.8 13.48C15.65 13.48 17.25 12.82 18.56 11.51C19.87 10.2 20.54 8.59 20.54 6.74C20.54 4.89 19.87 3.28 18.56 1.97C17.25 0.66 15.65 0 13.8 0C11.94 0 10.34 0.66 9.03 1.97C7.72 3.28 7.05 4.89 7.05 6.74C7.05 8.59 7.72 10.2 9.03 11.51C10.34 12.82 11.94 13.48 13.8 13.48ZM10.19 3.13C11.19 2.12 12.37 1.64 13.8 1.64C15.22 1.64 16.4 2.12 17.4 3.13C18.41 4.14 18.9 5.32 18.9 6.74C18.9 8.16 18.41 9.34 17.4 10.35C16.4 11.35 15.22 11.84 13.8 11.84C12.37 11.84 11.19 11.35 10.19 10.35C9.18 9.34 8.69 8.16 8.69 6.74C8.69 5.32 9.18 4.14 10.19 3.13Z" fill="#0F2438" fill-opacity="1.000000" fill-rule="nonzero"/>
		<path id="Vector" d="M25.6 21.53C25.56 20.98 25.48 20.38 25.37 19.76C25.26 19.12 25.11 18.52 24.93 17.98C24.75 17.41 24.51 16.85 24.2 16.32C23.89 15.76 23.52 15.28 23.1 14.88C22.66 14.47 22.13 14.13 21.52 13.89C20.9 13.64 20.22 13.52 19.49 13.52C19.21 13.52 18.93 13.64 18.4 13.99C18.07 14.2 17.68 14.45 17.26 14.72C16.89 14.96 16.39 15.17 15.78 15.37C15.18 15.57 14.57 15.66 13.97 15.66C13.37 15.66 12.76 15.57 12.16 15.37C11.55 15.17 11.05 14.96 10.69 14.72C10.26 14.45 9.88 14.2 9.55 13.99C9.01 13.64 8.74 13.52 8.45 13.52C7.72 13.52 7.04 13.64 6.43 13.89C5.81 14.13 5.28 14.47 4.84 14.88C4.43 15.28 4.06 15.76 3.74 16.32C3.44 16.85 3.19 17.41 3.01 17.98C2.83 18.53 2.69 19.12 2.57 19.76C2.46 20.38 2.39 20.98 2.35 21.53C2.31 22.06 2.29 22.62 2.29 23.18C2.29 24.64 2.76 25.82 3.67 26.7C4.58 27.56 5.77 28 7.23 28L20.71 28C22.17 28 23.37 27.56 24.27 26.7C25.19 25.83 25.65 24.64 25.65 23.18C25.65 22.62 25.63 22.06 25.6 21.53ZM23.14 25.51C22.54 26.08 21.75 26.35 20.71 26.35L7.23 26.35C6.2 26.35 5.4 26.08 4.8 25.51C4.22 24.95 3.93 24.19 3.93 23.18C3.93 22.66 3.95 22.14 3.98 21.64C4.02 21.15 4.09 20.62 4.19 20.05C4.29 19.48 4.42 18.96 4.57 18.48C4.72 18.02 4.92 17.57 5.17 17.13C5.4 16.71 5.68 16.36 5.98 16.07C6.26 15.8 6.61 15.58 7.03 15.41C7.42 15.26 7.85 15.18 8.32 15.16C8.38 15.19 8.48 15.25 8.65 15.36C8.99 15.58 9.38 15.83 9.81 16.1C10.29 16.41 10.91 16.69 11.66 16.93C12.42 17.18 13.2 17.31 13.97 17.31C14.74 17.31 15.52 17.18 16.28 16.93C17.03 16.69 17.65 16.41 18.14 16.1C18.58 15.82 18.96 15.58 19.29 15.36C19.46 15.25 19.56 15.19 19.62 15.16C20.09 15.18 20.53 15.26 20.91 15.41C21.33 15.58 21.68 15.8 21.97 16.07C22.27 16.35 22.54 16.71 22.78 17.13C23.02 17.57 23.22 18.02 23.37 18.48C23.52 18.96 23.65 19.48 23.75 20.05C23.86 20.62 23.93 21.15 23.96 21.64L23.96 21.64C23.99 22.14 24.01 22.65 24.01 23.18C24.01 24.19 23.73 24.95 23.14 25.51Z" fill="#0F2438" fill-opacity="1.000000" fill-rule="nonzero"/>
	</g>
</svg>
