<svg width="12.000000" height="12.000000" viewBox="0 0 12 12" fill="none" xmlns="http://www.w3.org/2000/svg" xmlns:xlink="http://www.w3.org/1999/xlink">
	<desc>
			Created with Pixso.
	</desc>
	<defs>
		<clipPath id="clip1_1108">
			<rect id="search (2) 1" width="12.000000" height="12.000000" fill="white" fill-opacity="0"/>
		</clipPath>
	</defs>
	<rect id="search (2) 1" width="12.000000" height="12.000000" fill="#FFFFFF" fill-opacity="0"/>
	<g clip-path="url(#clip1_1108)">
		<path id="Vector" d="M5.28 0C2.37 0 0 2.37 0 5.28C0 8.19 2.37 10.56 5.28 10.56C8.19 10.56 10.56 8.19 10.56 5.28C10.56 2.37 8.19 0 5.28 0ZM5.28 9.59C2.9 9.59 0.97 7.66 0.97 5.28C0.97 2.9 2.9 0.97 5.28 0.97C7.66 0.97 9.59 2.9 9.59 5.28C9.59 7.66 7.66 9.59 5.28 9.59Z" fill="#FFFFFF" fill-opacity="1.000000" fill-rule="nonzero"/>
		<path id="Vector" d="M11.85 11.16L9.06 8.37C8.86 8.17 8.56 8.17 8.37 8.37C8.17 8.56 8.17 8.86 8.37 9.06L11.16 11.85C11.26 11.95 11.38 12 11.51 12C11.63 12 11.76 11.95 11.85 11.85C12.04 11.66 12.04 11.35 11.85 11.16Z" fill="#FFFFFF" fill-opacity="1.000000" fill-rule="nonzero"/>
	</g>
</svg>
