<?xml version="1.0" ?><svg viewBox="0 0 24 24" xmlns="http://www.w3.org/2000/svg" xmlns:xlink="http://www.w3.org/1999/xlink"><style>:root>svg{display:none}:root>svg:target{display:block}</style><svg viewBox="0 0 24 24" xml:space="preserve" id="cake" xmlns="http://www.w3.org/2000/svg"><path d="M20.62 16.24c-.1-.09-.23-.18-.41-.27-.3-.14-.73-.28-1.27-.4l.06-4.62c0-.25-.13-.48-.35-.61l-2.01-1.13c.06-.21.1-.44.1-.67 0-.55-.21-1.07-.6-1.46-.31-.31-.71-.51-1.14-.58.14-.17.32-.32.52-.4.09-.04.13-.14.09-.23-.04-.09-.14-.13-.23-.09-.32.14-.6.39-.78.69-.52.02-1.01.23-1.39.6a2.05 2.05 0 0 0-.59 1.65L6.34 10.7c-.09.03-.14.12-.11.21.02.07.09.12.16.12.02 0 .03 0 .05-.01l6.24-1.95c.09.35.27.67.54.93.39.39.91.6 1.46.6.55 0 1.07-.21 1.46-.6.14-.14.26-.3.36-.48l1.98 1.11c.11.06.18.18.18.31l-.07 4.77-.01.37c0 .19-.16.34-.34.34l-12.55.02a.35.35 0 0 1-.24-.1.325.325 0 0 1-.1-.24v-4c0-.19.15-.34.33-.34l12.44-.36c.09 0 .17-.08.17-.18 0-.09-.08-.17-.18-.17l-12.44.37c-.18.01-.35.08-.47.21-.13.13-.2.3-.2.48v3.49c-.52.12-.93.25-1.23.39-.17.08-.31.17-.4.26-.12.11-.17.24-.17.37 0 .28.26.51.79.72.45.18 1.08.33 1.88.47 1.64.27 3.81.42 6.13.42 2.31 0 4.49-.15 6.13-.42.8-.13 1.44-.29 1.88-.47.53-.21.79-.44.79-.72 0-.14-.06-.26-.18-.38zm-5.94-5.98c-.95 0-1.72-.77-1.72-1.72 0-.87.65-1.59 1.48-1.71-.04.12-.07.24-.08.36a.578.578 0 0 1-.14-.05.17.17 0 0 0-.23.08.17.17 0 0 0 .08.23c.15.07.31.11.47.11h.1c.2-.02.39-.09.55-.2.08-.06.09-.16.04-.24-.06-.08-.16-.09-.24-.04-.08.06-.18.1-.29.12.02-.13.05-.26.1-.38.89.07 1.59.81 1.59 1.72.01.95-.76 1.72-1.71 1.72zm5.2 6.76c-.42.17-1.03.32-1.81.45-1.62.27-3.78.42-6.07.42-2.29 0-4.45-.15-6.07-.42-.78-.13-1.39-.28-1.81-.45-.42-.17-.57-.32-.57-.4 0-.07.1-.19.38-.32.26-.12.62-.24 1.08-.35v.15c0 .18.07.36.2.49s.3.2.48.2l12.55-.02c.18 0 .35-.07.48-.2s.2-.3.2-.48v-.16c.48.11.86.23 1.13.36.29.14.4.26.4.33 0 .08-.14.23-.57.4z"/></svg></svg>