<svg width="39.000000" height="16.000000" viewBox="0 0 39 16" fill="none" xmlns="http://www.w3.org/2000/svg" xmlns:xlink="http://www.w3.org/1999/xlink">
	<desc>
			Created with Pixso.
	</desc>
	<defs/>
	<path id="Star 2" d="M7.52 1.46L6.31 5.18C6.24 5.38 6.05 5.52 5.84 5.52L1.93 5.52C1.44 5.52 1.24 6.14 1.63 6.43L4.79 8.73C4.97 8.85 5.04 9.08 4.98 9.28L3.77 13C3.62 13.46 4.15 13.85 4.54 13.56L7.7 11.26C7.88 11.14 8.11 11.14 8.29 11.26L11.45 13.56C11.84 13.85 12.37 13.46 12.22 13L11.01 9.28C10.95 9.08 11.02 8.85 11.2 8.73L14.36 6.43C14.75 6.14 14.55 5.52 14.06 5.52L10.15 5.52C9.94 5.52 9.75 5.38 9.68 5.18L8.47 1.46C8.32 1 7.67 1 7.52 1.46Z" fill="#FFB800" fill-opacity="1.000000" fill-rule="evenodd"/>
	<path id="4.5" d="M26.6 9.45L25.36 9.45L25.36 3.04L23.64 3.04L19.35 9.77L19.4 10.78L23.7 10.78L23.7 13L25.36 13L25.36 10.78L26.6 10.78L26.6 9.45ZM32.59 3.04L32.05 8.06L33.38 8.39Q33.75 8.04 34.06 7.92Q34.38 7.8 34.83 7.8Q35.42 7.8 35.84 8.08Q35.99 8.18 36.13 8.33Q36.15 8.36 36.18 8.39Q36.6 8.91 36.6 9.77Q36.6 10.71 36.17 11.26Q36.01 11.46 35.8 11.59Q35.46 11.81 34.98 11.81Q34.42 11.81 34.03 11.55Q33.95 11.49 33.87 11.42Q33.85 11.4 33.84 11.39Q33.44 11.01 33.35 10.31L31.74 10.31Q31.79 11.09 32.15 11.68Q32.37 12.06 32.72 12.36Q32.92 12.53 33.14 12.66Q33.92 13.13 34.98 13.13Q36.21 13.13 37.02 12.55Q37.21 12.41 37.38 12.23Q37.54 12.07 37.67 11.88Q38.26 11.06 38.26 9.82Q38.26 8.36 37.55 7.46Q37.51 7.42 37.47 7.37Q37.26 7.13 37 6.95Q36.3 6.46 35.26 6.46Q34.55 6.46 33.96 6.72Q33.83 6.78 33.7 6.86L33.97 4.48L37.94 4.48L37.94 3.04L32.59 3.04ZM23.7 9.45L21.09 9.45L23.58 5.51L23.7 5.29L23.7 9.45ZM29.48 11.44Q29.24 11.25 28.84 11.25Q28.45 11.25 28.21 11.43Q28.17 11.47 28.13 11.51Q28.04 11.6 27.98 11.71Q27.87 11.91 27.87 12.17Q27.87 12.42 27.98 12.62Q28.04 12.73 28.13 12.82Q28.18 12.86 28.22 12.89Q28.47 13.07 28.84 13.07Q29.25 13.07 29.5 12.87Q29.53 12.84 29.56 12.81Q29.65 12.72 29.71 12.61Q29.81 12.42 29.81 12.17Q29.81 11.91 29.7 11.71Q29.65 11.6 29.56 11.51Q29.52 11.47 29.48 11.44Z" fill="#FFB800" fill-opacity="1.000000" fill-rule="evenodd"/>
</svg>
