<svg width="12.000000" height="12.000000" viewBox="0 0 12 12" fill="none" xmlns="http://www.w3.org/2000/svg" xmlns:xlink="http://www.w3.org/1999/xlink">
	<desc>
			Created with Pixso.
	</desc>
	<defs>
		<clipPath id="clip1_464">
			<rect id="whatsapp (2) 1" width="12.000000" height="12.000000" fill="white" fill-opacity="0"/>
		</clipPath>
	</defs>
	<rect id="whatsapp (2) 1" width="12.000000" height="12.000000" fill="#FFFFFF" fill-opacity="0"/>
	<g clip-path="url(#clip1_464)">
		<path id="Vector" d="M6 0L5.99 0C2.69 0 0 2.69 0 6C0 7.31 0.42 8.52 1.14 9.51L0.39 11.74L2.7 11C3.64 11.63 4.78 12 6 12C9.3 12 12 9.3 12 6C12 2.69 9.3 0 6 0Z" fill="#4CAF50" fill-opacity="1.000000" fill-rule="nonzero"/>
		<path id="Vector" d="M9.49 8.47C9.34 8.88 8.77 9.22 8.31 9.31C8 9.38 7.59 9.43 6.21 8.86C4.45 8.13 3.31 6.34 3.22 6.22C3.14 6.11 2.51 5.28 2.51 4.41C2.51 3.55 2.95 3.13 3.12 2.95C3.27 2.81 3.51 2.74 3.74 2.74C3.81 2.74 3.88 2.74 3.94 2.75C4.11 2.75 4.2 2.76 4.32 3.04C4.46 3.39 4.82 4.25 4.86 4.34C4.9 4.43 4.94 4.55 4.88 4.67C4.83 4.79 4.78 4.84 4.69 4.94C4.6 5.04 4.52 5.12 4.43 5.23C4.35 5.33 4.26 5.43 4.36 5.6C4.46 5.78 4.81 6.35 5.33 6.81C6 7.41 6.54 7.6 6.74 7.68C6.88 7.74 7.05 7.73 7.16 7.61C7.29 7.47 7.46 7.23 7.63 6.99C7.75 6.82 7.9 6.8 8.06 6.86C8.22 6.92 9.08 7.34 9.26 7.43C9.43 7.52 9.55 7.56 9.59 7.64C9.63 7.71 9.63 8.06 9.49 8.47Z" fill="#FAFAFA" fill-opacity="1.000000" fill-rule="nonzero"/>
	</g>
</svg>
